<svg t="1599549385720" class="icon" viewBox="0 0 1024 1024" version="1.1" xmlns="http://www.w3.org/2000/svg" p-id="17485" width="200" height="200"><path d="M780.970667 993.109333a212.081778 212.081778 0 1 1 212.138666-212.138666c0 117.191111-95.004444 212.138667-212.138666 212.138666z m0-363.633777a151.495111 151.495111 0 1 0 151.495111 151.495111 151.495111 151.495111 0 0 0-151.495111-151.495111z m129.991111 281.486222a30.321778 30.321778 0 0 1 41.528889 0l62.407111 62.464a30.321778 30.321778 0 0 1-39.992889 43.008L912.497778 954.026667a30.321778 30.321778 0 0 1 0-41.528889l-1.536-1.536zM325.176889 20.764444H172.999111A152.689778 152.689778 0 0 0 20.764444 172.942222v152.177778A152.689778 152.689778 0 0 0 172.942222 477.411556h152.177778a152.689778 152.689778 0 0 0 152.234667-152.234667V172.999111A152.689778 152.689778 0 0 0 325.176889 20.764444z m532.764444 0h-152.234666A152.689778 152.689778 0 0 0 553.528889 172.942222v152.177778a152.689778 152.689778 0 0 0 152.177778 152.234667h152.234666a152.689778 152.689778 0 0 0 152.234667-152.234667V172.999111A152.689778 152.689778 0 0 0 857.884444 20.764444zM325.176889 553.528889H172.999111a152.689778 152.689778 0 0 0-152.234667 152.177778v152.234666a152.689778 152.689778 0 0 0 152.234667 152.234667h152.177778a152.689778 152.689778 0 0 0 152.234667-152.234667v-152.234666A152.689778 152.689778 0 0 0 325.176889 553.528889z" fill="#FF5777" p-id="17486"></path></svg>