<svg t="1599560380970" class="icon" viewBox="0 0 1024 1024" version="1.1" xmlns="http://www.w3.org/2000/svg" p-id="4818" width="200" height="200"><path d="M869.040742 461.835484 580.146053 161.40097c-17.938558-18.643616-41.934065-28.930913-67.647703-28.930913-25.709545 0-49.710169 10.287297-67.64361 28.930913L155.955958 461.835484c-29.810956 31.025621-26.002211 57.821917-21.071921 69.02712 3.514033 7.944949 15.386432 29.771047 49.545416 29.771047l42.351574 0 0 231.15566c0 52.471049 37.709857 101.887528 91.312682 101.887528l48.577369 0 74.375941 0 0-54.307883L441.047018 649.055492c0-26.216081-3.971451-40.847314 22.873963-40.847314l48.578392 0 48.582485 0c26.841322 0 22.867824 14.631232 22.867824 40.847314l0 190.313463 0 54.307883 74.375941 0 48.582485 0c53.597709 0 91.311659-49.41648 91.311659-101.887528L798.219767 560.63365l42.351574 0c34.160008 0 46.031383-21.826098 49.542346-29.771047C895.047046 519.6574 898.849652 492.860081 869.040742 461.835484L869.040742 461.835484 869.040742 461.835484zM840.570317 513.048889l-36.45733 0L779.824815 513.048889l-29.224602 0 0 278.739399c0 26.216081-16.890692 54.307883-43.692105 54.307883l-75.338872 0L631.569236 649.055492c0-52.471049-16.847713-88.421842-70.488401-88.421842l-48.582485 0-48.582485 0c-53.637618 0-70.488401 35.951817-70.488401 88.421842l0 197.040678L318.088592 846.096171c-26.796296 0-43.686988-28.091802-43.686988-54.307883L274.401604 513.048889l-29.224602 0-24.293289 0-36.453237 0c-0.838088 0-1.588171-3.257184-2.298346-3.302209 1.62808-2.879584 4.472871-10.158361 9.194406-15.08865l288.939715-300.228829c8.609075-8.986675 20.778232-14.507412 32.609699-14.378475 11.791557-0.127913 23.246447 5.3918 31.855522 14.378475l288.938692 300.228829c4.722558 4.931313 7.566326 12.209066 9.195429 15.08865C842.159512 509.791705 841.405335 513.048889 840.570317 513.048889L840.570317 513.048889 840.570317 513.048889zM840.570317 513.048889" p-id="4819" fill="#8B8B8B"></path><path d="M512.499373 474.909244c-56.629765 0-102.70208-46.072315-102.70208-102.70208s46.072315-102.70208 102.70208-102.70208c56.630788 0 102.70208 46.072315 102.70208 102.70208S569.129138 474.909244 512.499373 474.909244zM512.499373 316.577169c-30.674627 0-55.629995 24.955368-55.629995 55.629995s24.955368 55.629995 55.629995 55.629995c30.674627 0 55.629995-24.955368 55.629995-55.629995S543.172977 316.577169 512.499373 316.577169z" p-id="4820" fill="#8B8B8B"></path></svg>